# xmcd
#
# Track frame offsets:
#	150
#	11807
#	23762
#	34774
#	48815
#	59373
#	70863
#	82501
#	95181
#	106388
#	119580
#	130689
#	141374
#	152522
#	161714
#	173326
#	187045
#	197219
#
# Disc length: 2779 seconds
#
# Revision: 1
# Processed by: cddbd v1.4PL0 Copyright (c) Steve Scherf et al.
# Submitted via: audiograbber 1.80
#
DISCID=ed0ad912
DTITLE=Patsy Cline - I Can't Forget
DYEAR=1900
DGENRE=
TTITLE0=Crasy Dreams
TTITLE1=Walking After Midnight
TTITLE2=Got A Lot Of Rhythm In My Soul
TTITLE3=A Church,A Courtroom,And Then Goodbye
TTITLE4=How Can I Face Tomorrow
TTITLE5=Hungry For Love
TTITLE6=That Wonderful Someone
TTITLE7=A Poor Man's Roses 
TTITLE8=I Can See An Angel Walking'
TTITLE9=Fingerprints
TTITLE10=I Can't Forget
TTITLE11=Honky Tonk Merry Go Round
TTITLE12=A Stranger In My Arms
TTITLE13=Ain't No Wheels On This Ship
TTITLE14=The Heart You Break May Be Your Own
TTITLE15=Life's Railway To Heaven
TTITLE16=Pick Me Up On Your Way Down
TTITLE17=Stop The World And Let Me Off
EXTD=
EXTT0=
EXTT1=
EXTT2=
EXTT3=
EXTT4=
EXTT5=
EXTT6=
EXTT7=
EXTT8=
EXTT9=
EXTT10=
EXTT11=
EXTT12=
EXTT13=
EXTT14=
EXTT15=
EXTT16=
EXTT17=
PLAYORDER=
